<svg width="170" height="33" viewBox="0 0 170 33" fill="none" xmlns="http://www.w3.org/2000/svg">
<path d="M7.42065 25H1.46115V8.18861H7.4699C9.16089 8.18861 10.6166 8.52517 11.8369 9.19828C13.0573 9.86592 13.9958 10.8263 14.6525 12.0795C15.3147 13.3327 15.6458 14.8322 15.6458 16.5779C15.6458 18.3291 15.3147 19.834 14.6525 21.0927C13.9958 22.3513 13.0518 23.3172 11.8205 23.9903C10.5947 24.6634 9.12806 25 7.42065 25ZM5.01551 21.9546H7.27289C8.32361 21.9546 9.20741 21.7685 9.9243 21.3964C10.6467 21.0188 11.1884 20.436 11.5496 19.6479C11.9163 18.8544 12.0996 17.8311 12.0996 16.5779C12.0996 15.3356 11.9163 14.3205 11.5496 13.5325C11.1884 12.7444 10.6494 12.1644 9.93251 11.7922C9.21562 11.4201 8.33181 11.234 7.2811 11.234H5.01551V21.9546ZM23.9591 25.2463C22.6621 25.2463 21.5457 24.9836 20.61 24.4582C19.6796 23.9274 18.9627 23.1777 18.4593 22.209C17.9558 21.235 17.7041 20.083 17.7041 18.7532C17.7041 17.4562 17.9558 16.3179 18.4593 15.3384C18.9627 14.3588 19.6714 13.5954 20.5853 13.0482C21.5047 12.5009 22.5828 12.2273 23.8195 12.2273C24.6514 12.2273 25.4257 12.3614 26.1426 12.6295C26.865 12.8922 27.4943 13.2889 28.0306 13.8198C28.5724 14.3506 28.9938 15.0182 29.2947 15.8227C29.5957 16.6217 29.7462 17.5575 29.7462 18.6301V19.5905H19.0996V17.4234H26.4545C26.4545 16.9199 26.3451 16.4739 26.1262 16.0854C25.9073 15.6968 25.6036 15.3931 25.215 15.1742C24.832 14.9498 24.3859 14.8376 23.877 14.8376C23.3462 14.8376 22.8756 14.9608 22.4651 15.207C22.0602 15.4478 21.7428 15.7734 21.5129 16.1839C21.2831 16.5888 21.1654 17.0403 21.1599 17.5383V19.5987C21.1599 20.2225 21.2749 20.7616 21.5047 21.2158C21.74 21.67 22.0711 22.0202 22.498 22.2665C22.9248 22.5128 23.431 22.6359 24.0166 22.6359C24.4051 22.6359 24.7608 22.5812 25.0837 22.4717C25.4066 22.3623 25.6829 22.1981 25.9128 21.9792C26.1426 21.7603 26.3177 21.4922 26.4381 21.1748L29.6723 21.3882C29.5082 22.1653 29.1716 22.8439 28.6627 23.4239C28.1592 23.9985 27.508 24.4473 26.709 24.7702C25.9155 25.0876 24.9989 25.2463 23.9591 25.2463ZM42.5189 15.9869L39.3175 16.1839C39.2628 15.9103 39.1452 15.664 38.9646 15.4451C38.784 15.2207 38.5459 15.0429 38.2504 14.9115C37.9604 14.7747 37.6129 14.7063 37.2079 14.7063C36.6661 14.7063 36.2092 14.8212 35.8371 15.0511C35.4649 15.2754 35.2789 15.5764 35.2789 15.954C35.2789 16.255 35.3993 16.5095 35.6401 16.7174C35.8808 16.9254 36.294 17.0923 36.8796 17.2182L39.1616 17.6779C40.3874 17.9296 41.3013 18.3345 41.9033 18.8927C42.5052 19.4509 42.8062 20.1842 42.8062 21.0927C42.8062 21.919 42.5627 22.6441 42.0757 23.268C41.5941 23.8918 40.9319 24.3789 40.0892 24.7291C39.2519 25.0739 38.286 25.2463 37.1915 25.2463C35.5224 25.2463 34.1926 24.8988 33.2021 24.2038C32.217 23.5033 31.6397 22.5511 31.47 21.3471L34.9095 21.1665C35.0135 21.6755 35.2652 22.064 35.6647 22.3322C36.0642 22.5949 36.5758 22.7262 37.1997 22.7262C37.8126 22.7262 38.3051 22.6085 38.6773 22.3732C39.0549 22.1324 39.2464 21.8232 39.2519 21.4456C39.2464 21.1282 39.1123 20.8683 38.8496 20.6658C38.587 20.4579 38.182 20.2992 37.6348 20.1897L35.4513 19.7547C34.22 19.5084 33.3033 19.0815 32.7013 18.4741C32.1048 17.8667 31.8066 17.0923 31.8066 16.151C31.8066 15.3411 32.0255 14.6434 32.4633 14.0578C32.9066 13.4723 33.5277 13.0208 34.3267 12.7034C35.1311 12.386 36.0724 12.2273 37.1505 12.2273C38.7429 12.2273 39.9961 12.5638 40.91 13.237C41.8294 13.9101 42.3657 14.8267 42.5189 15.9869ZM45.0082 25V12.3915H48.5051V25H45.0082ZM46.7649 10.7661C46.245 10.7661 45.799 10.5938 45.4269 10.249C45.0602 9.89876 44.8769 9.48011 44.8769 8.99307C44.8769 8.51149 45.0602 8.09832 45.4269 7.75356C45.799 7.40332 46.245 7.2282 46.7649 7.2282C47.2848 7.2282 47.728 7.40332 48.0947 7.75356C48.4668 8.09832 48.6529 8.51149 48.6529 8.99307C48.6529 9.48011 48.4668 9.89876 48.0947 10.249C47.728 10.5938 47.2848 10.7661 46.7649 10.7661ZM56.9867 29.9909C55.8539 29.9909 54.8826 29.8349 54.0727 29.523C53.2682 29.2165 52.6279 28.7979 52.1518 28.2671C51.6757 27.7362 51.3665 27.1397 51.2242 26.4776L54.4585 26.0425C54.557 26.2942 54.7129 26.5296 54.9264 26.7484C55.1398 26.9673 55.4216 27.1425 55.7719 27.2738C56.1276 27.4106 56.5599 27.479 57.0688 27.479C57.8295 27.479 58.4561 27.293 58.9486 26.9208C59.4466 26.5542 59.6956 25.9385 59.6956 25.0739V22.7672H59.5478C59.3946 23.1175 59.1648 23.4486 58.8583 23.7605C58.5519 24.0724 58.1578 24.3269 57.6763 24.5239C57.1947 24.7209 56.6201 24.8194 55.9524 24.8194C55.0057 24.8194 54.1438 24.6005 53.3667 24.1627C52.5951 23.7194 51.9794 23.0436 51.5198 22.1352C51.0655 21.2213 50.8384 20.0666 50.8384 18.6711C50.8384 17.2428 51.071 16.0498 51.5362 15.0921C52.0013 14.1344 52.6197 13.4175 53.3913 12.9414C54.1684 12.4653 55.0194 12.2273 55.9442 12.2273C56.6502 12.2273 57.2412 12.3477 57.7173 12.5885C58.1934 12.8238 58.5765 13.1193 58.8665 13.475C59.162 13.8252 59.3891 14.17 59.5478 14.5093H59.6792V12.3915H63.1515V25.1231C63.1515 26.1957 62.8888 27.0932 62.3634 27.8156C61.8381 28.5379 61.1102 29.0797 60.1799 29.4409C59.2551 29.8076 58.1907 29.9909 56.9867 29.9909ZM57.0606 22.1926C57.6243 22.1926 58.1004 22.0531 58.4889 21.774C58.8829 21.4894 59.1839 21.0845 59.3919 20.5591C59.6053 20.0283 59.712 19.3935 59.712 18.6547C59.712 17.9159 59.608 17.2756 59.4001 16.7339C59.1921 16.1866 58.8912 15.7625 58.4971 15.4615C58.1031 15.1605 57.6243 15.01 57.0606 15.01C56.486 15.01 56.0017 15.166 55.6077 15.4779C55.2137 15.7844 54.9154 16.2112 54.7129 16.7585C54.5104 17.3057 54.4092 17.9378 54.4092 18.6547C54.4092 19.3825 54.5104 20.0119 54.7129 20.5427C54.9209 21.068 55.2191 21.4757 55.6077 21.7658C56.0017 22.0503 56.486 22.1926 57.0606 22.1926ZM69.4311 17.7107V25H65.9342V12.3915H69.2669V14.616H69.4147C69.6938 13.8827 70.1617 13.3026 70.8184 12.8758C71.4751 12.4434 72.2713 12.2273 73.2071 12.2273C74.0827 12.2273 74.8461 12.4188 75.4973 12.8019C76.1485 13.185 76.6547 13.7322 77.0159 14.4436C77.3771 15.1496 77.5577 15.9923 77.5577 16.9719V25H74.0608V17.5958C74.0663 16.8242 73.8693 16.2222 73.4698 15.7899C73.0703 15.3521 72.5203 15.1332 71.8198 15.1332C71.3492 15.1332 70.9333 15.2344 70.5721 15.4369C70.2164 15.6394 69.9373 15.9349 69.7348 16.3234C69.5378 16.7065 69.4366 17.1689 69.4311 17.7107ZM94.8493 13.0235C94.7836 12.3614 94.5018 11.847 94.0038 11.4803C93.5058 11.1136 92.83 10.9303 91.9762 10.9303C91.3962 10.9303 90.9064 11.0124 90.5069 11.1766C90.1074 11.3353 89.8009 11.5569 89.5875 11.8415C89.3796 12.126 89.2756 12.4489 89.2756 12.8101C89.2646 13.1111 89.3276 13.3738 89.4644 13.5981C89.6067 13.8225 89.8009 14.0168 90.0472 14.181C90.2935 14.3397 90.578 14.4792 90.9009 14.5996C91.2238 14.7145 91.5686 14.813 91.9352 14.8951L93.4456 15.2563C94.1789 15.4205 94.852 15.6394 95.4649 15.913C96.0779 16.1866 96.6087 16.5232 97.0574 16.9227C97.5062 17.3221 97.8537 17.7928 98.0999 18.3345C98.3517 18.8763 98.4803 19.4974 98.4857 20.1979C98.4803 21.2267 98.2176 22.1188 97.6977 22.874C97.1833 23.6237 96.439 24.2065 95.4649 24.6224C94.4963 25.0328 93.3279 25.2381 91.9598 25.2381C90.6027 25.2381 89.4206 25.0301 88.4137 24.6142C87.4122 24.1983 86.6297 23.5826 86.066 22.7672C85.5078 21.9464 85.215 20.9312 85.1877 19.7218H88.6271C88.6654 20.2855 88.8269 20.7561 89.1114 21.1337C89.4015 21.5058 89.7873 21.7877 90.2688 21.9792C90.7559 22.1653 91.3059 22.2583 91.9188 22.2583C92.5208 22.2583 93.0434 22.1707 93.4866 21.9956C93.9354 21.8205 94.2829 21.577 94.5292 21.265C94.7754 20.9531 94.8985 20.5947 94.8985 20.1897C94.8985 19.8121 94.7864 19.4947 94.562 19.2375C94.3431 18.9803 94.0202 18.7614 93.5934 18.5808C93.172 18.4002 92.6548 18.236 92.0419 18.0883L90.2114 17.6286C88.794 17.2838 87.6749 16.7448 86.854 16.0115C86.0332 15.2782 85.6255 14.2904 85.6309 13.0482C85.6255 12.0303 85.8964 11.141 86.4436 10.3803C86.9963 9.61966 87.7542 9.0259 88.7174 8.59905C89.6806 8.1722 90.775 7.95877 92.0009 7.95877C93.2486 7.95877 94.3376 8.1722 95.2679 8.59905C96.2037 9.0259 96.9316 9.61966 97.4514 10.3803C97.9713 11.141 98.2395 12.0221 98.2559 13.0235H94.8493ZM102.97 29.7282C102.526 29.7282 102.111 29.6926 101.722 29.6215C101.339 29.5558 101.022 29.471 100.77 29.367L101.558 26.7567C101.968 26.8825 102.338 26.9509 102.666 26.9619C103 26.9728 103.287 26.8962 103.528 26.732C103.774 26.5679 103.974 26.2888 104.127 25.8947L104.332 25.3612L99.8094 12.3915H103.487L106.097 21.6509H106.229L108.864 12.3915H112.566L107.665 26.3626C107.43 27.0412 107.11 27.6323 106.705 28.1357C106.305 28.6447 105.799 29.0359 105.186 29.3096C104.573 29.5887 103.834 29.7282 102.97 29.7282ZM124.846 15.9869L121.644 16.1839C121.59 15.9103 121.472 15.664 121.292 15.4451C121.111 15.2207 120.873 15.0429 120.577 14.9115C120.287 14.7747 119.94 14.7063 119.535 14.7063C118.993 14.7063 118.536 14.8212 118.164 15.0511C117.792 15.2754 117.606 15.5764 117.606 15.954C117.606 16.255 117.726 16.5095 117.967 16.7174C118.208 16.9254 118.621 17.0923 119.207 17.2182L121.489 17.6779C122.714 17.9296 123.628 18.3345 124.23 18.8927C124.832 19.4509 125.133 20.1842 125.133 21.0927C125.133 21.919 124.89 22.6441 124.403 23.268C123.921 23.8918 123.259 24.3789 122.416 24.7291C121.579 25.0739 120.613 25.2463 119.518 25.2463C117.849 25.2463 116.52 24.8988 115.529 24.2038C114.544 23.5033 113.967 22.5511 113.797 21.3471L117.236 21.1665C117.34 21.6755 117.592 22.064 117.992 22.3322C118.391 22.5949 118.903 22.7262 119.527 22.7262C120.14 22.7262 120.632 22.6085 121.004 22.3732C121.382 22.1324 121.573 21.8232 121.579 21.4456C121.573 21.1282 121.439 20.8683 121.177 20.6658C120.914 20.4579 120.509 20.2992 119.962 20.1897L117.778 19.7547C116.547 19.5084 115.63 19.0815 115.028 18.4741C114.432 17.8667 114.134 17.0923 114.134 16.151C114.134 15.3411 114.352 14.6434 114.79 14.0578C115.234 13.4723 115.855 13.0208 116.654 12.7034C117.458 12.386 118.399 12.2273 119.477 12.2273C121.07 12.2273 122.323 12.5638 123.237 13.237C124.156 13.9101 124.693 14.8267 124.846 15.9869ZM134.042 12.3915V15.0182H126.449V12.3915H134.042ZM128.172 9.37067H131.669V21.1255C131.669 21.4484 131.719 21.7001 131.817 21.8807C131.916 22.0558 132.052 22.1789 132.228 22.2501C132.408 22.3212 132.616 22.3568 132.851 22.3568C133.016 22.3568 133.18 22.3431 133.344 22.3158C133.508 22.2829 133.634 22.2583 133.722 22.2419L134.271 24.844C134.096 24.8988 133.85 24.9617 133.533 25.0328C133.215 25.1094 132.83 25.156 132.375 25.1724C131.533 25.2052 130.794 25.093 130.159 24.8358C129.53 24.5786 129.04 24.1791 128.69 23.6374C128.339 23.0956 128.167 22.4115 128.172 21.5852V9.37067ZM141.93 25.2463C140.633 25.2463 139.517 24.9836 138.581 24.4582C137.651 23.9274 136.934 23.1777 136.43 22.209C135.927 21.235 135.675 20.083 135.675 18.7532C135.675 17.4562 135.927 16.3179 136.43 15.3384C136.934 14.3588 137.643 13.5954 138.556 13.0482C139.476 12.5009 140.554 12.2273 141.791 12.2273C142.622 12.2273 143.397 12.3614 144.114 12.6295C144.836 12.8922 145.465 13.2889 146.002 13.8198C146.543 14.3506 146.965 15.0182 147.266 15.8227C147.567 16.6217 147.717 17.5575 147.717 18.6301V19.5905H137.071V17.4234H144.426C144.426 16.9199 144.316 16.4739 144.097 16.0854C143.878 15.6968 143.575 15.3931 143.186 15.1742C142.803 14.9498 142.357 14.8376 141.848 14.8376C141.317 14.8376 140.847 14.9608 140.436 15.207C140.031 15.4478 139.714 15.7734 139.484 16.1839C139.254 16.5888 139.137 17.0403 139.131 17.5383V19.5987C139.131 20.2225 139.246 20.7616 139.476 21.2158C139.711 21.67 140.042 22.0202 140.469 22.2665C140.896 22.5128 141.402 22.6359 141.988 22.6359C142.376 22.6359 142.732 22.5812 143.055 22.4717C143.378 22.3623 143.654 22.1981 143.884 21.9792C144.114 21.7603 144.289 21.4922 144.409 21.1748L147.643 21.3882C147.479 22.1653 147.143 22.8439 146.634 23.4239C146.13 23.9985 145.479 24.4473 144.68 24.7702C143.887 25.0876 142.97 25.2463 141.93 25.2463ZM149.999 25V12.3915H153.332V14.616H153.48C153.742 13.8772 154.18 13.2944 154.793 12.8676C155.406 12.4407 156.139 12.2273 156.993 12.2273C157.858 12.2273 158.594 12.4434 159.201 12.8758C159.809 13.3026 160.214 13.8827 160.416 14.616H160.547C160.805 13.8937 161.27 13.3163 161.943 12.884C162.622 12.4462 163.423 12.2273 164.348 12.2273C165.525 12.2273 166.48 12.6022 167.213 13.3519C167.952 14.0961 168.321 15.1523 168.321 16.5204V25H164.832V17.21C164.832 16.5095 164.646 15.9841 164.274 15.6339C163.902 15.2837 163.437 15.1085 162.879 15.1085C162.244 15.1085 161.749 15.311 161.393 15.716C161.037 16.1155 160.859 16.6436 160.859 17.3003V25H157.469V17.1361C157.469 16.5177 157.291 16.0252 156.936 15.6585C156.585 15.2919 156.123 15.1085 155.548 15.1085C155.16 15.1085 154.81 15.207 154.498 15.404C154.191 15.5956 153.948 15.8665 153.767 16.2167C153.587 16.5615 153.496 16.9664 153.496 17.4316V25H149.999Z" fill="#181C1A"/>
</svg>
