<svg width="170" height="34" viewBox="0 0 170 34" fill="none" xmlns="http://www.w3.org/2000/svg">
<path d="M7.42065 25.5H1.46115V8.68861H7.4699C9.16089 8.68861 10.6166 9.02517 11.8369 9.69828C13.0573 10.3659 13.9958 11.3263 14.6525 12.5795C15.3147 13.8327 15.6458 15.3322 15.6458 17.0779C15.6458 18.8291 15.3147 20.334 14.6525 21.5927C13.9958 22.8513 13.0518 23.8172 11.8205 24.4903C10.5947 25.1634 9.12806 25.5 7.42065 25.5ZM5.01551 22.4546H7.27289C8.32361 22.4546 9.20741 22.2685 9.9243 21.8964C10.6467 21.5188 11.1884 20.936 11.5496 20.1479C11.9163 19.3544 12.0996 18.3311 12.0996 17.0779C12.0996 15.8356 11.9163 14.8205 11.5496 14.0325C11.1884 13.2444 10.6494 12.6644 9.93251 12.2922C9.21562 11.9201 8.33181 11.734 7.2811 11.734H5.01551V22.4546ZM23.9591 25.7463C22.6621 25.7463 21.5457 25.4836 20.61 24.9582C19.6796 24.4274 18.9627 23.6777 18.4593 22.709C17.9558 21.735 17.7041 20.583 17.7041 19.2532C17.7041 17.9562 17.9558 16.8179 18.4593 15.8384C18.9627 14.8588 19.6714 14.0954 20.5853 13.5482C21.5047 13.0009 22.5828 12.7273 23.8195 12.7273C24.6514 12.7273 25.4257 12.8614 26.1426 13.1295C26.865 13.3922 27.4943 13.7889 28.0306 14.3198C28.5724 14.8506 28.9938 15.5182 29.2947 16.3227C29.5957 17.1217 29.7462 18.0575 29.7462 19.1301V20.0905H19.0996V17.9234H26.4545C26.4545 17.4199 26.3451 16.9739 26.1262 16.5854C25.9073 16.1968 25.6036 15.8931 25.215 15.6742C24.832 15.4498 24.3859 15.3376 23.877 15.3376C23.3462 15.3376 22.8756 15.4608 22.4651 15.707C22.0602 15.9478 21.7428 16.2734 21.5129 16.6839C21.2831 17.0888 21.1654 17.5403 21.1599 18.0383V20.0987C21.1599 20.7225 21.2749 21.2616 21.5047 21.7158C21.74 22.17 22.0711 22.5202 22.498 22.7665C22.9248 23.0128 23.431 23.1359 24.0166 23.1359C24.4051 23.1359 24.7608 23.0812 25.0837 22.9717C25.4066 22.8623 25.6829 22.6981 25.9128 22.4792C26.1426 22.2603 26.3177 21.9922 26.4381 21.6748L29.6723 21.8882C29.5082 22.6653 29.1716 23.3439 28.6627 23.9239C28.1592 24.4985 27.508 24.9473 26.709 25.2702C25.9155 25.5876 24.9989 25.7463 23.9591 25.7463ZM42.5189 16.4869L39.3175 16.6839C39.2628 16.4103 39.1452 16.164 38.9646 15.9451C38.784 15.7207 38.5459 15.5429 38.2504 15.4115C37.9604 15.2747 37.6129 15.2063 37.2079 15.2063C36.6661 15.2063 36.2092 15.3212 35.8371 15.5511C35.4649 15.7754 35.2789 16.0764 35.2789 16.454C35.2789 16.755 35.3993 17.0095 35.6401 17.2174C35.8808 17.4254 36.294 17.5923 36.8796 17.7182L39.1616 18.1779C40.3874 18.4296 41.3013 18.8345 41.9033 19.3927C42.5052 19.9509 42.8062 20.6842 42.8062 21.5927C42.8062 22.419 42.5627 23.1441 42.0757 23.768C41.5941 24.3918 40.9319 24.8789 40.0892 25.2291C39.2519 25.5739 38.286 25.7463 37.1915 25.7463C35.5224 25.7463 34.1926 25.3988 33.2021 24.7038C32.217 24.0033 31.6397 23.0511 31.47 21.8471L34.9095 21.6665C35.0135 22.1755 35.2652 22.564 35.6647 22.8322C36.0642 23.0949 36.5758 23.2262 37.1997 23.2262C37.8126 23.2262 38.3051 23.1085 38.6773 22.8732C39.0549 22.6324 39.2464 22.3232 39.2519 21.9456C39.2464 21.6282 39.1123 21.3683 38.8496 21.1658C38.587 20.9579 38.182 20.7992 37.6348 20.6897L35.4513 20.2547C34.22 20.0084 33.3033 19.5815 32.7013 18.9741C32.1048 18.3667 31.8066 17.5923 31.8066 16.651C31.8066 15.8411 32.0255 15.1434 32.4633 14.5578C32.9066 13.9723 33.5277 13.5208 34.3267 13.2034C35.1311 12.886 36.0724 12.7273 37.1505 12.7273C38.7429 12.7273 39.9961 13.0638 40.91 13.737C41.8294 14.4101 42.3657 15.3267 42.5189 16.4869ZM45.0082 25.5V12.8915H48.5051V25.5H45.0082ZM46.7649 11.2661C46.245 11.2661 45.799 11.0938 45.4269 10.749C45.0602 10.3988 44.8769 9.98011 44.8769 9.49307C44.8769 9.01149 45.0602 8.59832 45.4269 8.25356C45.799 7.90332 46.245 7.7282 46.7649 7.7282C47.2848 7.7282 47.728 7.90332 48.0947 8.25356C48.4668 8.59832 48.6529 9.01149 48.6529 9.49307C48.6529 9.98011 48.4668 10.3988 48.0947 10.749C47.728 11.0938 47.2848 11.2661 46.7649 11.2661ZM56.9867 30.4909C55.8539 30.4909 54.8826 30.3349 54.0727 30.023C53.2682 29.7165 52.6279 29.2979 52.1518 28.7671C51.6757 28.2362 51.3665 27.6397 51.2242 26.9776L54.4585 26.5425C54.557 26.7942 54.7129 27.0296 54.9264 27.2484C55.1398 27.4673 55.4216 27.6425 55.7719 27.7738C56.1276 27.9106 56.5599 27.979 57.0688 27.979C57.8295 27.979 58.4561 27.793 58.9486 27.4208C59.4466 27.0542 59.6956 26.4385 59.6956 25.5739V23.2672H59.5478C59.3946 23.6175 59.1648 23.9486 58.8583 24.2605C58.5519 24.5724 58.1578 24.8269 57.6763 25.0239C57.1947 25.2209 56.6201 25.3194 55.9524 25.3194C55.0057 25.3194 54.1438 25.1005 53.3667 24.6627C52.5951 24.2194 51.9794 23.5436 51.5198 22.6352C51.0655 21.7213 50.8384 20.5666 50.8384 19.1711C50.8384 17.7428 51.071 16.5498 51.5362 15.5921C52.0013 14.6344 52.6197 13.9175 53.3913 13.4414C54.1684 12.9653 55.0194 12.7273 55.9442 12.7273C56.6502 12.7273 57.2412 12.8477 57.7173 13.0885C58.1934 13.3238 58.5765 13.6193 58.8665 13.975C59.162 14.3252 59.3891 14.67 59.5478 15.0093H59.6792V12.8915H63.1515V25.6231C63.1515 26.6957 62.8888 27.5932 62.3634 28.3156C61.8381 29.0379 61.1102 29.5797 60.1799 29.9409C59.2551 30.3076 58.1907 30.4909 56.9867 30.4909ZM57.0606 22.6926C57.6243 22.6926 58.1004 22.5531 58.4889 22.274C58.8829 21.9894 59.1839 21.5845 59.3919 21.0591C59.6053 20.5283 59.712 19.8935 59.712 19.1547C59.712 18.4159 59.608 17.7756 59.4001 17.2339C59.1921 16.6866 58.8912 16.2625 58.4971 15.9615C58.1031 15.6605 57.6243 15.51 57.0606 15.51C56.486 15.51 56.0017 15.666 55.6077 15.9779C55.2137 16.2844 54.9154 16.7112 54.7129 17.2585C54.5104 17.8057 54.4092 18.4378 54.4092 19.1547C54.4092 19.8825 54.5104 20.5119 54.7129 21.0427C54.9209 21.568 55.2191 21.9757 55.6077 22.2658C56.0017 22.5503 56.486 22.6926 57.0606 22.6926ZM69.4311 18.2107V25.5H65.9342V12.8915H69.2669V15.116H69.4147C69.6938 14.3827 70.1617 13.8026 70.8184 13.3758C71.4751 12.9434 72.2713 12.7273 73.2071 12.7273C74.0827 12.7273 74.8461 12.9188 75.4973 13.3019C76.1485 13.685 76.6547 14.2322 77.0159 14.9436C77.3771 15.6496 77.5577 16.4923 77.5577 17.4719V25.5H74.0608V18.0958C74.0663 17.3242 73.8693 16.7222 73.4698 16.2899C73.0703 15.8521 72.5203 15.6332 71.8198 15.6332C71.3492 15.6332 70.9333 15.7344 70.5721 15.9369C70.2164 16.1394 69.9373 16.4349 69.7348 16.8234C69.5378 17.2065 69.4366 17.6689 69.4311 18.2107ZM94.8493 13.5235C94.7836 12.8614 94.5018 12.347 94.0038 11.9803C93.5058 11.6136 92.83 11.4303 91.9762 11.4303C91.3962 11.4303 90.9064 11.5124 90.5069 11.6766C90.1074 11.8353 89.8009 12.0569 89.5875 12.3415C89.3796 12.626 89.2756 12.9489 89.2756 13.3101C89.2646 13.6111 89.3276 13.8738 89.4644 14.0981C89.6067 14.3225 89.8009 14.5168 90.0472 14.681C90.2935 14.8397 90.578 14.9792 90.9009 15.0996C91.2238 15.2145 91.5686 15.313 91.9352 15.3951L93.4456 15.7563C94.1789 15.9205 94.852 16.1394 95.4649 16.413C96.0779 16.6866 96.6087 17.0232 97.0574 17.4227C97.5062 17.8221 97.8537 18.2928 98.0999 18.8345C98.3517 19.3763 98.4803 19.9974 98.4857 20.6979C98.4803 21.7267 98.2176 22.6188 97.6977 23.374C97.1833 24.1237 96.439 24.7065 95.4649 25.1224C94.4963 25.5328 93.3279 25.7381 91.9598 25.7381C90.6027 25.7381 89.4206 25.5301 88.4137 25.1142C87.4122 24.6983 86.6297 24.0826 86.066 23.2672C85.5078 22.4464 85.215 21.4312 85.1877 20.2218H88.6271C88.6654 20.7855 88.8269 21.2561 89.1114 21.6337C89.4015 22.0058 89.7873 22.2877 90.2688 22.4792C90.7559 22.6653 91.3059 22.7583 91.9188 22.7583C92.5208 22.7583 93.0434 22.6707 93.4866 22.4956C93.9354 22.3205 94.2829 22.077 94.5292 21.765C94.7754 21.4531 94.8985 21.0947 94.8985 20.6897C94.8985 20.3121 94.7864 19.9947 94.562 19.7375C94.3431 19.4803 94.0202 19.2614 93.5934 19.0808C93.172 18.9002 92.6548 18.736 92.0419 18.5883L90.2114 18.1286C88.794 17.7838 87.6749 17.2448 86.854 16.5115C86.0332 15.7782 85.6255 14.7904 85.6309 13.5482C85.6255 12.5303 85.8964 11.641 86.4436 10.8803C86.9963 10.1197 87.7542 9.5259 88.7174 9.09905C89.6806 8.6722 90.775 8.45877 92.0009 8.45877C93.2486 8.45877 94.3376 8.6722 95.2679 9.09905C96.2037 9.5259 96.9316 10.1197 97.4514 10.8803C97.9713 11.641 98.2395 12.5221 98.2559 13.5235H94.8493ZM102.97 30.2282C102.526 30.2282 102.111 30.1926 101.722 30.1215C101.339 30.0558 101.022 29.971 100.77 29.867L101.558 27.2567C101.968 27.3825 102.338 27.4509 102.666 27.4619C103 27.4728 103.287 27.3962 103.528 27.232C103.774 27.0679 103.974 26.7888 104.127 26.3947L104.332 25.8612L99.8094 12.8915H103.487L106.097 22.1509H106.229L108.864 12.8915H112.566L107.665 26.8626C107.43 27.5412 107.11 28.1323 106.705 28.6357C106.305 29.1447 105.799 29.5359 105.186 29.8096C104.573 30.0887 103.834 30.2282 102.97 30.2282ZM124.846 16.4869L121.644 16.6839C121.59 16.4103 121.472 16.164 121.292 15.9451C121.111 15.7207 120.873 15.5429 120.577 15.4115C120.287 15.2747 119.94 15.2063 119.535 15.2063C118.993 15.2063 118.536 15.3212 118.164 15.5511C117.792 15.7754 117.606 16.0764 117.606 16.454C117.606 16.755 117.726 17.0095 117.967 17.2174C118.208 17.4254 118.621 17.5923 119.207 17.7182L121.489 18.1779C122.714 18.4296 123.628 18.8345 124.23 19.3927C124.832 19.9509 125.133 20.6842 125.133 21.5927C125.133 22.419 124.89 23.1441 124.403 23.768C123.921 24.3918 123.259 24.8789 122.416 25.2291C121.579 25.5739 120.613 25.7463 119.518 25.7463C117.849 25.7463 116.52 25.3988 115.529 24.7038C114.544 24.0033 113.967 23.0511 113.797 21.8471L117.236 21.6665C117.34 22.1755 117.592 22.564 117.992 22.8322C118.391 23.0949 118.903 23.2262 119.527 23.2262C120.14 23.2262 120.632 23.1085 121.004 22.8732C121.382 22.6324 121.573 22.3232 121.579 21.9456C121.573 21.6282 121.439 21.3683 121.177 21.1658C120.914 20.9579 120.509 20.7992 119.962 20.6897L117.778 20.2547C116.547 20.0084 115.63 19.5815 115.028 18.9741C114.432 18.3667 114.134 17.5923 114.134 16.651C114.134 15.8411 114.352 15.1434 114.79 14.5578C115.234 13.9723 115.855 13.5208 116.654 13.2034C117.458 12.886 118.399 12.7273 119.477 12.7273C121.07 12.7273 122.323 13.0638 123.237 13.737C124.156 14.4101 124.693 15.3267 124.846 16.4869ZM134.042 12.8915V15.5182H126.449V12.8915H134.042ZM128.172 9.87067H131.669V21.6255C131.669 21.9484 131.719 22.2001 131.817 22.3807C131.916 22.5558 132.052 22.6789 132.228 22.7501C132.408 22.8212 132.616 22.8568 132.851 22.8568C133.016 22.8568 133.18 22.8431 133.344 22.8158C133.508 22.7829 133.634 22.7583 133.722 22.7419L134.271 25.344C134.096 25.3988 133.85 25.4617 133.533 25.5328C133.215 25.6094 132.83 25.656 132.375 25.6724C131.533 25.7052 130.794 25.593 130.159 25.3358C129.53 25.0786 129.04 24.6791 128.69 24.1374C128.339 23.5956 128.167 22.9115 128.172 22.0852V9.87067ZM141.93 25.7463C140.633 25.7463 139.517 25.4836 138.581 24.9582C137.651 24.4274 136.934 23.6777 136.43 22.709C135.927 21.735 135.675 20.583 135.675 19.2532C135.675 17.9562 135.927 16.8179 136.43 15.8384C136.934 14.8588 137.643 14.0954 138.556 13.5482C139.476 13.0009 140.554 12.7273 141.791 12.7273C142.622 12.7273 143.397 12.8614 144.114 13.1295C144.836 13.3922 145.465 13.7889 146.002 14.3198C146.543 14.8506 146.965 15.5182 147.266 16.3227C147.567 17.1217 147.717 18.0575 147.717 19.1301V20.0905H137.071V17.9234H144.426C144.426 17.4199 144.316 16.9739 144.097 16.5854C143.878 16.1968 143.575 15.8931 143.186 15.6742C142.803 15.4498 142.357 15.3376 141.848 15.3376C141.317 15.3376 140.847 15.4608 140.436 15.707C140.031 15.9478 139.714 16.2734 139.484 16.6839C139.254 17.0888 139.137 17.5403 139.131 18.0383V20.0987C139.131 20.7225 139.246 21.2616 139.476 21.7158C139.711 22.17 140.042 22.5202 140.469 22.7665C140.896 23.0128 141.402 23.1359 141.988 23.1359C142.376 23.1359 142.732 23.0812 143.055 22.9717C143.378 22.8623 143.654 22.6981 143.884 22.4792C144.114 22.2603 144.289 21.9922 144.409 21.6748L147.643 21.8882C147.479 22.6653 147.143 23.3439 146.634 23.9239C146.13 24.4985 145.479 24.9473 144.68 25.2702C143.887 25.5876 142.97 25.7463 141.93 25.7463ZM149.999 25.5V12.8915H153.332V15.116H153.48C153.742 14.3772 154.18 13.7944 154.793 13.3676C155.406 12.9407 156.139 12.7273 156.993 12.7273C157.858 12.7273 158.594 12.9434 159.201 13.3758C159.809 13.8026 160.214 14.3827 160.416 15.116H160.547C160.805 14.3937 161.27 13.8163 161.943 13.384C162.622 12.9462 163.423 12.7273 164.348 12.7273C165.525 12.7273 166.48 13.1022 167.213 13.8519C167.952 14.5961 168.321 15.6523 168.321 17.0204V25.5H164.832V17.71C164.832 17.0095 164.646 16.4841 164.274 16.1339C163.902 15.7837 163.437 15.6085 162.879 15.6085C162.244 15.6085 161.749 15.811 161.393 16.216C161.037 16.6155 160.859 17.1436 160.859 17.8003V25.5H157.469V17.6361C157.469 17.0177 157.291 16.5252 156.936 16.1585C156.585 15.7919 156.123 15.6085 155.548 15.6085C155.16 15.6085 154.81 15.707 154.498 15.904C154.191 16.0956 153.948 16.3665 153.767 16.7167C153.587 17.0615 153.496 17.4664 153.496 17.9316V25.5H149.999Z" fill="white"/>
</svg>
